<svg width="412" height="65" viewBox="0 0 412 65" fill="none" xmlns="http://www.w3.org/2000/svg">
<g clip-path="url(#clip0_165_154)">
<path fill-rule="evenodd" clip-rule="evenodd" d="M346.344 6.33403C346.344 2.83584 349.18 0 352.678 0H404.908C408.406 0 411.242 2.83585 411.242 6.33404V58.5645C411.242 62.0627 408.406 64.8985 404.908 64.8985H352.678C349.18 64.8985 346.344 62.0626 346.344 58.5645V6.33403ZM352.678 5.75822C352.36 5.75822 352.102 6.01602 352.102 6.33403V58.5645C352.102 58.8825 352.36 59.1403 352.678 59.1403H404.908C405.226 59.1403 405.484 58.8825 405.484 58.5645V6.33404C405.484 6.01602 405.226 5.75822 404.908 5.75822H352.678Z" fill="#2552ED"/>
<path d="M388.758 22.959V41.3397H383.708L383.753 31.6944L372.97 42.9321L368.83 38.7464L380.068 28.0091L370.377 28.0546L370.422 22.959H388.758Z" fill="#2552ED"/>
<path d="M0 32.7339C0 28.9157 0.731476 25.5792 2.19451 22.7246C3.6933 19.8342 5.81643 17.6039 8.56407 16.0338C11.3475 14.4638 14.6125 13.6787 18.3593 13.6787C21.2854 13.6787 23.9082 14.2496 26.2276 15.3915C28.5471 16.5334 30.4205 18.1392 31.8478 20.2088C33.2752 22.2785 34.1316 24.6693 34.4171 27.3813H26.3882C25.9243 25.2403 24.943 23.5632 23.4443 22.3499C21.9812 21.101 20.1435 20.4765 17.9311 20.4765C14.9336 20.4765 12.5607 21.6006 10.8122 23.8486C9.06364 26.0967 8.18943 29.0584 8.18943 32.7339C8.18943 36.3737 9.06364 39.3354 10.8122 41.6192C12.5607 43.8672 14.9336 44.9913 17.9311 44.9913C20.1435 44.9913 21.9812 44.3847 23.4443 43.1714C24.943 41.9225 25.9243 40.2275 26.3882 38.0865H34.4171C34.1316 40.7984 33.2752 43.1892 31.8478 45.2589C30.4205 47.3286 28.5471 48.9344 26.2276 50.0763C23.9082 51.2181 21.2854 51.7891 18.3593 51.7891C14.6125 51.7891 11.3475 51.004 8.56407 49.4339C5.81643 47.8639 3.6933 45.6514 2.19451 42.7967C0.731476 39.9063 0 36.5521 0 32.7339Z" fill="#2552ED"/>
<path d="M75.7993 32.7339C75.7993 36.338 75.014 39.603 73.444 42.5291C71.8741 45.4195 69.6791 47.6854 66.8607 49.3269C64.0414 50.9683 60.8298 51.7891 57.2258 51.7891C53.6217 51.7891 50.4101 50.9683 47.5911 49.3269C44.7721 47.6854 42.5775 45.4195 41.0075 42.5291C39.4374 39.603 38.6523 36.338 38.6523 32.7339C38.6523 29.1298 39.4374 25.8826 41.0075 22.9922C42.5775 20.0661 44.7721 17.7823 47.5911 16.1409C50.4101 14.4994 53.6217 13.6787 57.2258 13.6787C60.8298 13.6787 64.0414 14.4994 66.8607 16.1409C69.6791 17.7823 71.8741 20.0661 73.444 22.9922C75.014 25.8826 75.7993 29.1298 75.7993 32.7339ZM46.8418 32.7339C46.8418 35.089 47.27 37.1944 48.1264 39.0499C48.9828 40.9055 50.196 42.3685 51.7661 43.439C53.3362 44.4738 55.1561 44.9913 57.2258 44.9913C59.2598 44.9913 61.0617 44.4738 62.6318 43.439C64.202 42.3685 65.4152 40.9055 66.2719 39.0499C67.1281 37.1944 67.5559 35.089 67.5559 32.7339C67.5559 30.3787 67.1281 28.2734 66.2719 26.4178C65.4152 24.5623 64.202 23.1171 62.6318 22.0822C61.0617 21.0117 59.2598 20.4765 57.2258 20.4765C55.1561 20.4765 53.3362 21.0117 51.7661 22.0822C50.196 23.1171 48.9828 24.5623 48.1264 26.4178C47.27 28.2734 46.8418 30.3787 46.8418 32.7339Z" fill="#2552ED"/>
<path d="M80.0703 51.468V14H87.3496L103.247 37.6048V14H111.168V51.468H103.836L87.9384 27.8632V51.468H80.0703Z" fill="#2552ED"/>
<path d="M116.473 32.7339C116.473 28.9157 117.204 25.5792 118.668 22.7246C120.166 19.8342 122.289 17.6039 125.037 16.0338C127.821 14.4638 131.085 13.6787 134.832 13.6787C137.758 13.6787 140.381 14.2496 142.701 15.3915C145.02 16.5334 146.893 18.1392 148.32 20.2088C149.748 22.2785 150.604 24.6693 150.89 27.3813H142.861C142.397 25.2403 141.416 23.5632 139.917 22.3499C138.454 21.101 136.617 20.4765 134.404 20.4765C131.407 20.4765 129.034 21.6006 127.285 23.8486C125.536 26.0967 124.662 29.0584 124.662 32.7339C124.662 36.3737 125.536 39.3354 127.285 41.6192C129.034 43.8672 131.407 44.9913 134.404 44.9913C136.617 44.9913 138.454 44.3847 139.917 43.1714C141.416 41.9225 142.397 40.2275 142.861 38.0865H150.89C150.604 40.7984 149.748 43.1892 148.32 45.2589C146.893 47.3286 145.02 48.9344 142.701 50.0763C140.381 51.2181 137.758 51.7891 134.832 51.7891C131.085 51.7891 127.821 51.004 125.037 49.4339C122.289 47.8639 120.166 45.6514 118.668 42.7967C117.204 39.9063 116.473 36.5521 116.473 32.7339Z" fill="#2552ED"/>
<path d="M191.26 32.7339C191.26 36.338 190.475 39.603 188.905 42.5291C187.335 45.4195 185.14 47.6854 182.321 49.3269C179.502 50.9683 176.29 51.7891 172.686 51.7891C169.083 51.7891 165.871 50.9683 163.052 49.3269C160.233 47.6854 158.038 45.4195 156.469 42.5291C154.898 39.603 154.113 36.338 154.113 32.7339C154.113 29.1298 154.898 25.8826 156.469 22.9922C158.038 20.0661 160.233 17.7823 163.052 16.1409C165.871 14.4994 169.083 13.6787 172.686 13.6787C176.29 13.6787 179.502 14.4994 182.321 16.1409C185.14 17.7823 187.335 20.0661 188.905 22.9922C190.475 25.8826 191.26 29.1298 191.26 32.7339ZM162.303 32.7339C162.303 35.089 162.731 37.1944 163.588 39.0499C164.444 40.9055 165.657 42.3685 167.227 43.439C168.797 44.4738 170.617 44.9913 172.686 44.9913C174.72 44.9913 176.522 44.4738 178.093 43.439C179.663 42.3685 180.876 40.9055 181.732 39.0499C182.589 37.1944 183.017 35.089 183.017 32.7339C183.017 30.3787 182.589 28.2734 181.732 26.4178C180.876 24.5623 179.663 23.1171 178.093 22.0822C176.522 21.0117 174.72 20.4765 172.686 20.4765C170.617 20.4765 168.797 21.0117 167.227 22.0822C165.657 23.1171 164.444 24.5623 163.588 26.4178C162.731 28.2734 162.303 30.3787 162.303 32.7339Z" fill="#2552ED"/>
<path d="M204.306 14V35.7315C204.306 38.7646 204.895 41.0484 206.072 42.5827C207.25 44.1171 209.106 44.8844 211.639 44.8844C214.172 44.8844 216.028 44.1171 217.206 42.5827C218.419 41.0484 219.025 38.7646 219.025 35.7315V14H227.055V35.3033C227.055 40.6558 225.734 44.7416 223.093 47.5606C220.489 50.3797 216.67 51.7892 211.639 51.7892C206.608 51.7892 202.79 50.3797 200.185 47.5606C197.58 44.7416 196.277 40.6558 196.277 35.3033V14H204.306Z" fill="#2552ED"/>
<path d="M247.848 14C250.56 14 252.951 14.5175 255.021 15.5523C257.126 16.5514 258.75 17.9966 259.892 19.8878C261.034 21.7791 261.605 23.9736 261.605 26.4715C261.605 28.8623 261.034 30.9855 259.892 32.841C258.75 34.661 257.18 36.0526 255.182 37.0161L262.568 51.468H253.683L247.421 38.8895H240.623V51.468H232.594V14H247.848ZM240.623 32.1987H247.206C249.098 32.1987 250.596 31.6814 251.703 30.6465C252.844 29.6117 253.415 28.22 253.415 26.4715C253.415 24.6873 252.844 23.2778 251.703 22.243C250.596 21.2082 249.098 20.6907 247.206 20.6907H240.623V32.1987Z" fill="#2552ED"/>
<path d="M273.102 39.264C273.245 41.1196 273.995 42.6183 275.351 43.7602C276.743 44.8664 278.58 45.4195 280.864 45.4195C282.755 45.4195 284.289 45.027 285.467 44.2419C286.681 43.4212 287.287 42.2971 287.287 40.8698C287.287 39.8707 286.948 39.0856 286.27 38.5147C285.628 37.9081 284.7 37.4442 283.487 37.123C282.309 36.7662 280.471 36.338 277.973 35.8384C275.512 35.3745 273.442 34.7857 271.765 34.072C270.087 33.3227 268.713 32.2343 267.643 30.8069C266.609 29.3439 266.091 27.417 266.091 25.0262C266.091 22.8495 266.679 20.9047 267.857 19.1919C269.07 17.4791 270.73 16.1409 272.835 15.1774C274.976 14.1783 277.385 13.6787 280.061 13.6787C282.809 13.6787 285.271 14.1962 287.448 15.231C289.66 16.2301 291.391 17.6218 292.64 19.406C293.924 21.1902 294.584 23.2063 294.62 25.4544H286.752C286.574 23.8486 285.895 22.564 284.718 21.6006C283.54 20.6014 281.988 20.1018 280.061 20.1018C278.277 20.1018 276.85 20.4765 275.779 21.2258C274.709 21.9752 274.173 23.0457 274.173 24.4374C274.173 25.4365 274.494 26.2215 275.136 26.7925C275.779 27.3278 276.689 27.7738 277.866 28.1307C279.044 28.4518 280.864 28.8443 283.326 29.3082C285.824 29.7721 287.929 30.3609 289.642 31.0746C291.355 31.7526 292.729 32.8052 293.764 34.2326C294.834 35.6243 295.37 37.4977 295.37 39.8528C295.37 42.1366 294.745 44.1884 293.496 46.0082C292.247 47.7925 290.499 49.202 288.251 50.2368C286.038 51.2716 283.54 51.7891 280.757 51.7891C277.759 51.7891 275.083 51.2538 272.728 50.1833C270.409 49.0771 268.588 47.5605 267.268 45.6336C265.948 43.7067 265.27 41.5478 265.234 39.157L273.102 39.264Z" fill="#2552ED"/>
<path d="M301.621 14H326.778V20.9048H309.65V29.3084H323.567V35.892H309.65V44.5632H327.367V51.468H301.621V14Z" fill="#2552ED"/>
</g>
<defs>
<clipPath id="clip0_165_154">
<rect width="411.242" height="64.8985" fill="white"/>
</clipPath>
</defs>
</svg>
